# xmcd CD database file
#
# Track frame offsets:
#	150
#	66603
#	121205
#	215034
#	262150
#
# Disc length: 3811 seconds
#
# Revision: 0
# Processed by: cddbd v1.4PL0 Copyright (c) Steve Scherf et al.
# Submitted via: CDex 1.50Beta7
#
DISCID=540ee105
DTITLE=Takeo Moriyama Quartet - Live at LOVELY
DYEAR=1900
DGENRE=Jazz
TTITLE0=Sunrise
TTITLE1=Watarase
TTITLE2=Exchange
TTITLE3=Hush-a-bye
TTITLE4=Good bye
EXTD=
EXTT0=
EXTT1=
EXTT2=
EXTT3=
EXTT4=
PLAYORDER=
